<svg width="14" height="14" viewBox="0 0 14 14" fill="none" xmlns="http://www.w3.org/2000/svg">
<path d="M12.6801 6.23443L3.49256 0.990447C3.33758 0.903207 3.15971 0.865259 2.98263 0.881659C2.80554 0.89806 2.63766 0.96803 2.50135 1.08225C2.36503 1.19647 2.26676 1.34951 2.21962 1.52099C2.17248 1.69247 2.17871 1.87424 2.23748 2.04209L3.91256 7.00006L2.23748 11.9586C2.19086 12.0905 2.17657 12.2317 2.19581 12.3703C2.21504 12.5089 2.26724 12.6409 2.34802 12.7552C2.42881 12.8694 2.53582 12.9627 2.66008 13.027C2.78434 13.0914 2.92223 13.125 3.06217 13.1251C3.2142 13.1247 3.36357 13.0852 3.49584 13.0102L12.679 7.75748C12.8144 7.6816 12.9272 7.57105 13.0059 7.43718C13.0845 7.3033 13.1261 7.15092 13.1263 6.99566C13.1266 6.84041 13.0856 6.68787 13.0074 6.55372C12.9293 6.41956 12.8169 6.30861 12.6817 6.23224L12.6801 6.23443ZM3.06217 12.2501C3.0624 12.2479 3.0624 12.2457 3.06217 12.2435L4.68857 7.43756H7.87467C7.9907 7.43756 8.10198 7.39146 8.18402 7.30942C8.26607 7.22737 8.31217 7.11609 8.31217 7.00006C8.31217 6.88402 8.26607 6.77275 8.18402 6.6907C8.10198 6.60865 7.9907 6.56256 7.87467 6.56256H4.68857L3.06545 1.75881C3.06491 1.75571 3.0638 1.75274 3.06217 1.75006L12.2497 6.99076L3.06217 12.2501Z" fill="black"/>
</svg>
