<svg width="40" height="40" viewBox="0 0 40 40" fill="none" xmlns="http://www.w3.org/2000/svg">
<circle cx="20" cy="20" r="19.85" fill="white" stroke="#CDCDCD" stroke-width="0.3"/>
<path d="M23.5312 26.9698C23.6009 27.0395 23.6562 27.1222 23.6939 27.2132C23.7316 27.3043 23.751 27.4019 23.751 27.5004C23.751 27.599 23.7316 27.6965 23.6939 27.7876C23.6562 27.8786 23.6009 27.9614 23.5312 28.031C23.4615 28.1007 23.3788 28.156 23.2878 28.1937C23.1967 28.2314 23.0991 28.2508 23.0006 28.2508C22.902 28.2508 22.8045 28.2314 22.7134 28.1937C22.6224 28.156 22.5396 28.1007 22.47 28.031L14.97 20.531C14.9002 20.4614 14.8449 20.3787 14.8072 20.2876C14.7694 20.1966 14.75 20.099 14.75 20.0004C14.75 19.9019 14.7694 19.8043 14.8072 19.7132C14.8449 19.6222 14.9002 19.5394 14.97 19.4698L22.47 11.9698C22.6107 11.8291 22.8016 11.75 23.0006 11.75C23.1996 11.75 23.3905 11.8291 23.5312 11.9698C23.6719 12.1105 23.751 12.3014 23.751 12.5004C23.751 12.6994 23.6719 12.8903 23.5312 13.031L16.5609 20.0004L23.5312 26.9698Z" fill="black"/>
</svg>
