<svg width="24" height="24" viewBox="0 0 24 24" fill="none" xmlns="http://www.w3.org/2000/svg">
<path d="M8.03122 13.7198C8.17195 13.8605 8.25101 14.0514 8.25101 14.2504C8.25101 14.4494 8.17195 14.6403 8.03122 14.781C7.89048 14.9218 7.69961 15.0008 7.50059 15.0008C7.30157 15.0008 7.1107 14.9218 6.96996 14.781L2.46996 10.281C2.40023 10.2114 2.34491 10.1287 2.30717 10.0376C2.26943 9.94657 2.25 9.84898 2.25 9.75042C2.25 9.65186 2.26943 9.55426 2.30717 9.46321C2.34491 9.37216 2.40023 9.28945 2.46996 9.21979L6.96996 4.71979C7.1107 4.57906 7.30157 4.5 7.50059 4.5C7.69961 4.5 7.89048 4.57906 8.03122 4.71979C8.17195 4.86052 8.25101 5.05139 8.25101 5.25042C8.25101 5.44944 8.17195 5.64031 8.03122 5.78104L4.0609 9.75042L8.03122 13.7198ZM12.0006 9.00042H9.3109L12.5312 5.78104C12.6719 5.64031 12.751 5.44944 12.751 5.25042C12.751 5.05139 12.6719 4.86052 12.5312 4.71979C12.3905 4.57906 12.1996 4.5 12.0006 4.5C11.8016 4.5 11.6107 4.57906 11.47 4.71979L6.96996 9.21979C6.90023 9.28945 6.84491 9.37216 6.80717 9.46321C6.76943 9.55426 6.75 9.65186 6.75 9.75042C6.75 9.84898 6.76943 9.94657 6.80717 10.0376C6.84491 10.1287 6.90023 10.2114 6.96996 10.281L11.47 14.781C11.5396 14.8507 11.6224 14.906 11.7134 14.9437C11.8045 14.9814 11.902 15.0008 12.0006 15.0008C12.0991 15.0008 12.1967 14.9814 12.2878 14.9437C12.3788 14.906 12.4615 14.8507 12.5312 14.781C12.6009 14.7114 12.6562 14.6286 12.6939 14.5376C12.7316 14.4465 12.751 14.349 12.751 14.2504C12.751 14.1519 12.7316 14.0543 12.6939 13.9632C12.6562 13.8722 12.6009 13.7895 12.5312 13.7198L9.3109 10.5004H12.0006C14.1879 10.5029 16.2848 11.3729 17.8315 12.9195C19.3781 14.4662 20.2481 16.5631 20.2506 18.7504C20.2506 18.9493 20.3296 19.1401 20.4703 19.2807C20.6109 19.4214 20.8017 19.5004 21.0006 19.5004C21.1995 19.5004 21.3903 19.4214 21.5309 19.2807C21.6716 19.1401 21.7506 18.9493 21.7506 18.7504C21.7479 16.1654 20.7198 13.687 18.8919 11.8591C17.064 10.0313 14.5856 9.00315 12.0006 9.00042Z" fill="black"/>
</svg>
