<svg width="59" height="11" viewBox="0 0 59 11" fill="none" xmlns="http://www.w3.org/2000/svg">
<g clip-path="url(#clip0_2_3681)">
<rect width="59" height="11" rx="2" fill="#FFA500"/>
<path d="M0 0H16L9.23077 12H0V0Z" fill="#FF3300"/>
<path d="M16.3 7.997L16.303 7.595L18.256 5.831C18.424 5.679 18.535 5.535 18.589 5.399C18.645 5.261 18.673 5.117 18.673 4.967C18.673 4.789 18.631 4.628 18.547 4.484C18.463 4.34 18.35 4.226 18.208 4.142C18.066 4.056 17.907 4.013 17.731 4.013C17.547 4.013 17.383 4.057 17.239 4.145C17.095 4.233 16.981 4.349 16.897 4.493C16.815 4.637 16.775 4.794 16.777 4.964H16.327C16.327 4.702 16.389 4.467 16.513 4.259C16.637 4.051 16.805 3.888 17.017 3.77C17.229 3.65 17.469 3.59 17.737 3.59C17.999 3.59 18.234 3.652 18.442 3.776C18.652 3.898 18.817 4.064 18.937 4.274C19.059 4.482 19.12 4.714 19.12 4.97C19.12 5.15 19.098 5.309 19.054 5.447C19.012 5.583 18.945 5.71 18.853 5.828C18.763 5.944 18.648 6.064 18.508 6.188L16.774 7.754L16.705 7.574H19.12V7.997H16.3ZM21.2519 8.09C20.9859 8.09 20.7459 8.028 20.5319 7.904C20.3199 7.78 20.1519 7.612 20.0279 7.4C19.9039 7.186 19.8419 6.946 19.8419 6.68V5C19.8419 4.734 19.9039 4.495 20.0279 4.283C20.1519 4.069 20.3199 3.9 20.5319 3.776C20.7459 3.652 20.9859 3.59 21.2519 3.59C21.5179 3.59 21.7569 3.652 21.9689 3.776C22.1829 3.9 22.3519 4.069 22.4759 4.283C22.5999 4.495 22.6619 4.734 22.6619 5V6.68C22.6619 6.946 22.5999 7.186 22.4759 7.4C22.3519 7.612 22.1829 7.78 21.9689 7.904C21.7569 8.028 21.5179 8.09 21.2519 8.09ZM21.2519 7.664C21.4299 7.664 21.5919 7.621 21.7379 7.535C21.8839 7.447 21.9999 7.33 22.0859 7.184C22.1719 7.038 22.2149 6.877 22.2149 6.701V4.979C22.2149 4.801 22.1719 4.639 22.0859 4.493C21.9999 4.347 21.8839 4.231 21.7379 4.145C21.5919 4.057 21.4299 4.013 21.2519 4.013C21.0739 4.013 20.9119 4.057 20.7659 4.145C20.6199 4.231 20.5039 4.347 20.4179 4.493C20.3319 4.639 20.2889 4.801 20.2889 4.979V6.701C20.2889 6.877 20.3319 7.038 20.4179 7.184C20.5039 7.33 20.6199 7.447 20.7659 7.535C20.9119 7.621 21.0739 7.664 21.2519 7.664ZM23.924 8L23.624 7.7L27.653 3.68L27.953 3.977L23.924 8ZM27.053 8.09C26.855 8.09 26.674 8.042 26.51 7.946C26.348 7.848 26.218 7.718 26.12 7.556C26.022 7.392 25.973 7.21 25.973 7.01C25.973 6.814 26.023 6.634 26.123 6.47C26.223 6.306 26.355 6.175 26.519 6.077C26.683 5.979 26.861 5.93 27.053 5.93C27.251 5.93 27.432 5.979 27.596 6.077C27.76 6.173 27.89 6.303 27.986 6.467C28.084 6.629 28.133 6.81 28.133 7.01C28.133 7.21 28.084 7.392 27.986 7.556C27.89 7.718 27.76 7.848 27.596 7.946C27.432 8.042 27.251 8.09 27.053 8.09ZM27.053 7.691C27.175 7.691 27.288 7.66 27.392 7.598C27.496 7.536 27.579 7.454 27.641 7.352C27.703 7.248 27.734 7.134 27.734 7.01C27.734 6.886 27.703 6.773 27.641 6.671C27.579 6.567 27.496 6.484 27.392 6.422C27.288 6.36 27.175 6.329 27.053 6.329C26.929 6.329 26.815 6.36 26.711 6.422C26.609 6.484 26.526 6.567 26.462 6.671C26.4 6.773 26.369 6.886 26.369 7.01C26.369 7.134 26.4 7.248 26.462 7.352C26.526 7.454 26.609 7.536 26.711 7.598C26.815 7.66 26.929 7.691 27.053 7.691ZM24.524 5.75C24.326 5.75 24.145 5.702 23.981 5.606C23.817 5.508 23.686 5.378 23.588 5.216C23.492 5.052 23.444 4.87 23.444 4.67C23.444 4.474 23.494 4.294 23.594 4.13C23.694 3.966 23.826 3.835 23.99 3.737C24.154 3.639 24.332 3.59 24.524 3.59C24.722 3.59 24.902 3.639 25.064 3.737C25.228 3.833 25.359 3.963 25.457 4.127C25.555 4.289 25.604 4.47 25.604 4.67C25.604 4.87 25.555 5.052 25.457 5.216C25.359 5.378 25.228 5.508 25.064 5.606C24.902 5.702 24.722 5.75 24.524 5.75ZM24.524 5.351C24.648 5.351 24.761 5.32 24.863 5.258C24.967 5.196 25.05 5.114 25.112 5.012C25.174 4.908 25.205 4.794 25.205 4.67C25.205 4.546 25.174 4.433 25.112 4.331C25.05 4.227 24.967 4.144 24.863 4.082C24.761 4.02 24.648 3.989 24.524 3.989C24.4 3.989 24.286 4.02 24.182 4.082C24.08 4.144 23.998 4.227 23.936 4.331C23.874 4.433 23.843 4.546 23.843 4.67C23.843 4.794 23.874 4.908 23.936 5.012C23.998 5.114 24.08 5.196 24.182 5.258C24.286 5.32 24.4 5.351 24.524 5.351ZM31.8624 8.09C31.4324 8.09 31.0694 7.995 30.7734 7.805C30.4774 7.613 30.2534 7.348 30.1014 7.01C29.9494 6.672 29.8734 6.282 29.8734 5.84C29.8734 5.398 29.9494 5.008 30.1014 4.67C30.2534 4.332 30.4774 4.068 30.7734 3.878C31.0694 3.686 31.4324 3.59 31.8624 3.59C32.2944 3.59 32.6574 3.686 32.9514 3.878C33.2474 4.068 33.4714 4.332 33.6234 4.67C33.7774 5.008 33.8544 5.398 33.8544 5.84C33.8544 6.282 33.7774 6.672 33.6234 7.01C33.4714 7.348 33.2474 7.613 32.9514 7.805C32.6574 7.995 32.2944 8.09 31.8624 8.09ZM31.8624 7.667C32.2004 7.667 32.4824 7.59 32.7084 7.436C32.9344 7.282 33.1034 7.068 33.2154 6.794C33.3294 6.518 33.3864 6.2 33.3864 5.84C33.3864 5.48 33.3294 5.163 33.2154 4.889C33.1034 4.615 32.9344 4.401 32.7084 4.247C32.4824 4.093 32.2004 4.015 31.8624 4.013C31.5244 4.013 31.2434 4.09 31.0194 4.244C30.7954 4.398 30.6264 4.613 30.5124 4.889C30.4004 5.163 30.3434 5.48 30.3414 5.84C30.3394 6.2 30.3944 6.517 30.5064 6.791C30.6204 7.063 30.7904 7.277 31.0164 7.433C31.2424 7.587 31.5244 7.665 31.8624 7.667ZM34.7762 8V4.52C34.7762 4.436 34.7802 4.353 34.7882 4.271C34.7982 4.189 34.8172 4.111 34.8452 4.037C34.8732 3.961 34.9172 3.891 34.9772 3.827C35.0432 3.755 35.1152 3.703 35.1932 3.671C35.2712 3.637 35.3522 3.615 35.4362 3.605C35.5222 3.595 35.6062 3.59 35.6882 3.59H36.1022V3.962H35.7182C35.5502 3.962 35.4242 4.003 35.3402 4.085C35.2582 4.167 35.2172 4.296 35.2172 4.472V8H34.7762ZM34.2152 5.138V4.76H36.1022V5.138H34.2152ZM36.6242 8V4.52C36.6242 4.436 36.6282 4.353 36.6362 4.271C36.6462 4.189 36.6652 4.111 36.6932 4.037C36.7212 3.961 36.7652 3.891 36.8252 3.827C36.8912 3.755 36.9632 3.703 37.0412 3.671C37.1192 3.637 37.2002 3.615 37.2842 3.605C37.3702 3.595 37.4542 3.59 37.5362 3.59H37.9502V3.962H37.5662C37.3982 3.962 37.2722 4.003 37.1882 4.085C37.1062 4.167 37.0652 4.296 37.0652 4.472V8H36.6242ZM36.0632 5.138V4.76H37.9502V5.138H36.0632ZM39.689 4.145V3.65H40.13V4.145H39.689ZM39.689 8V4.76H40.13V8H39.689ZM43.3694 8V6.347C43.3694 6.167 43.3524 6.002 43.3184 5.852C43.2844 5.7 43.2294 5.568 43.1534 5.456C43.0794 5.342 42.9824 5.254 42.8624 5.192C42.7444 5.13 42.6004 5.099 42.4304 5.099C42.2744 5.099 42.1364 5.126 42.0164 5.18C41.8984 5.234 41.7984 5.312 41.7164 5.414C41.6364 5.514 41.5754 5.636 41.5334 5.78C41.4914 5.924 41.4704 6.088 41.4704 6.272L41.1584 6.203C41.1584 5.871 41.2164 5.592 41.3324 5.366C41.4484 5.14 41.6084 4.969 41.8124 4.853C42.0164 4.737 42.2504 4.679 42.5144 4.679C42.7084 4.679 42.8774 4.709 43.0214 4.769C43.1674 4.829 43.2904 4.91 43.3904 5.012C43.4924 5.114 43.5744 5.231 43.6364 5.363C43.6984 5.493 43.7434 5.632 43.7714 5.78C43.7994 5.926 43.8134 6.072 43.8134 6.218V8H43.3694ZM41.0264 8V4.76H41.4254V5.558H41.4704V8H41.0264ZM47.248 8.09C46.95 8.09 46.698 8.015 46.492 7.865C46.286 7.713 46.13 7.508 46.024 7.25C45.918 6.99 45.865 6.699 45.865 6.377C45.865 6.049 45.918 5.757 46.024 5.501C46.132 5.243 46.29 5.04 46.498 4.892C46.706 4.744 46.962 4.67 47.266 4.67C47.562 4.67 47.816 4.745 48.028 4.895C48.24 5.045 48.402 5.249 48.514 5.507C48.628 5.765 48.685 6.055 48.685 6.377C48.685 6.701 48.628 6.992 48.514 7.25C48.4 7.508 48.236 7.713 48.022 7.865C47.808 8.015 47.55 8.09 47.248 8.09ZM45.79 8V3.68H46.234V5.561H46.186V8H45.79ZM47.203 7.679C47.429 7.679 47.617 7.622 47.767 7.508C47.917 7.394 48.029 7.239 48.103 7.043C48.179 6.845 48.217 6.623 48.217 6.377C48.217 6.133 48.18 5.913 48.106 5.717C48.032 5.521 47.919 5.366 47.767 5.252C47.617 5.138 47.426 5.081 47.194 5.081C46.968 5.081 46.78 5.136 46.63 5.246C46.482 5.356 46.371 5.509 46.297 5.705C46.223 5.899 46.186 6.123 46.186 6.377C46.186 6.627 46.223 6.851 46.297 7.049C46.371 7.245 46.483 7.399 46.633 7.511C46.783 7.623 46.973 7.679 47.203 7.679ZM50.5828 8.081C50.3888 8.081 50.2188 8.051 50.0728 7.991C49.9288 7.931 49.8058 7.85 49.7038 7.748C49.6038 7.646 49.5228 7.53 49.4608 7.4C49.3988 7.268 49.3538 7.129 49.3258 6.983C49.2978 6.835 49.2838 6.688 49.2838 6.542V4.76H49.7278V6.413C49.7278 6.591 49.7448 6.756 49.7788 6.908C49.8128 7.06 49.8668 7.193 49.9408 7.307C50.0168 7.419 50.1138 7.506 50.2318 7.568C50.3518 7.63 50.4968 7.661 50.6668 7.661C50.8228 7.661 50.9598 7.634 51.0778 7.58C51.1978 7.526 51.2978 7.449 51.3778 7.349C51.4598 7.247 51.5218 7.124 51.5638 6.98C51.6058 6.834 51.6268 6.67 51.6268 6.488L51.9388 6.557C51.9388 6.889 51.8808 7.168 51.7648 7.394C51.6488 7.62 51.4888 7.791 51.2848 7.907C51.0808 8.023 50.8468 8.081 50.5828 8.081ZM51.6718 8V7.202H51.6268V4.76H52.0678V8H51.6718ZM52.9663 8V3.59H53.4073V8H52.9663ZM54.3037 8L54.3067 3.68H54.7507V6.32L56.1967 4.76H56.7847L55.2667 6.38L56.9827 8H56.3407L54.7507 6.44V8H54.3037Z" fill="white"/>
<g clip-path="url(#clip1_2_3681)">
<path d="M9.49094 4.31688L8.68969 7.20063C8.64563 7.35815 8.55141 7.49702 8.42131 7.59616C8.29121 7.6953 8.13232 7.74931 7.96875 7.75H4.88C4.71595 7.74993 4.55642 7.6962 4.42575 7.59701C4.29508 7.49782 4.20043 7.35862 4.15625 7.20063L3.06 3.25H2.5C2.4337 3.25 2.37011 3.22366 2.32322 3.17678C2.27634 3.12989 2.25 3.0663 2.25 3C2.25 2.9337 2.27634 2.87011 2.32322 2.82322C2.37011 2.77634 2.4337 2.75 2.5 2.75H3.25C3.30466 2.74999 3.35781 2.76789 3.40133 2.80096C3.44484 2.83404 3.47632 2.88046 3.49094 2.93313L3.78719 4H9.25C9.28854 3.99999 9.32656 4.0089 9.36109 4.02602C9.39562 4.04313 9.42573 4.068 9.44905 4.09868C9.47238 4.12936 9.4883 4.16502 9.49557 4.20287C9.50283 4.24072 9.50125 4.27974 9.49094 4.31688ZM4.75 8.25C4.65111 8.25 4.55444 8.27933 4.47221 8.33427C4.38999 8.38921 4.3259 8.4673 4.28806 8.55866C4.25022 8.65002 4.24031 8.75056 4.25961 8.84755C4.2789 8.94454 4.32652 9.03363 4.39645 9.10355C4.46637 9.17348 4.55546 9.2211 4.65245 9.24039C4.74945 9.25969 4.84998 9.24978 4.94134 9.21194C5.0327 9.1741 5.11079 9.11001 5.16573 9.02779C5.22068 8.94556 5.25 8.84889 5.25 8.75C5.25 8.61739 5.19732 8.49022 5.10355 8.39645C5.00979 8.30268 4.88261 8.25 4.75 8.25ZM8 8.25C7.90111 8.25 7.80444 8.27933 7.72221 8.33427C7.63999 8.38921 7.5759 8.4673 7.53806 8.55866C7.50022 8.65002 7.49031 8.75056 7.50961 8.84755C7.5289 8.94454 7.57652 9.03363 7.64645 9.10355C7.71637 9.17348 7.80546 9.2211 7.90245 9.24039C7.99945 9.25969 8.09998 9.24978 8.19134 9.21194C8.2827 9.1741 8.36079 9.11001 8.41573 9.02779C8.47068 8.94556 8.5 8.84889 8.5 8.75C8.5 8.61739 8.44732 8.49022 8.35355 8.39645C8.25979 8.30268 8.13261 8.25 8 8.25Z" fill="white"/>
</g>
</g>
<defs>
<clipPath id="clip0_2_3681">
<rect width="59" height="11" rx="2" fill="white"/>
</clipPath>
<clipPath id="clip1_2_3681">
<rect width="8" height="8" fill="white" transform="translate(2 2)"/>
</clipPath>
</defs>
</svg>
