<svg width="54" height="11" viewBox="0 0 54 11" fill="none" xmlns="http://www.w3.org/2000/svg">
<g clip-path="url(#clip0_2_3678)">
<rect width="54" height="11" rx="2" fill="#FFA500"/>
<path d="M0 0H16L9.23077 12H0V0Z" fill="#FF3300"/>
<path d="M16.42 8V3.68H18.901V4.121H16.861V5.621H18.541V6.059H16.861V8H16.42ZM19.4434 8V4.76H19.8394V5.54L19.7614 5.438C19.7974 5.342 19.8444 5.254 19.9024 5.174C19.9604 5.092 20.0234 5.025 20.0914 4.973C20.1754 4.899 20.2734 4.843 20.3854 4.805C20.4974 4.765 20.6104 4.742 20.7244 4.736C20.8384 4.728 20.9424 4.736 21.0364 4.76V5.174C20.9184 5.144 20.7894 5.137 20.6494 5.153C20.5094 5.169 20.3804 5.225 20.2624 5.321C20.1544 5.405 20.0734 5.506 20.0194 5.624C19.9654 5.74 19.9294 5.864 19.9114 5.996C19.8934 6.126 19.8844 6.255 19.8844 6.383V8H19.4434ZM22.918 8.09C22.602 8.09 22.328 8.02 22.096 7.88C21.866 7.74 21.687 7.543 21.559 7.289C21.431 7.035 21.367 6.737 21.367 6.395C21.367 6.041 21.43 5.735 21.556 5.477C21.682 5.219 21.859 5.02 22.087 4.88C22.317 4.74 22.588 4.67 22.9 4.67C23.22 4.67 23.493 4.744 23.719 4.892C23.945 5.038 24.116 5.248 24.232 5.522C24.348 5.796 24.401 6.123 24.391 6.503H23.941V6.347C23.933 5.927 23.842 5.61 23.668 5.396C23.496 5.182 23.244 5.075 22.912 5.075C22.564 5.075 22.297 5.188 22.111 5.414C21.927 5.64 21.835 5.962 21.835 6.38C21.835 6.788 21.927 7.105 22.111 7.331C22.297 7.555 22.56 7.667 22.9 7.667C23.132 7.667 23.334 7.614 23.506 7.508C23.68 7.4 23.817 7.245 23.917 7.043L24.328 7.202C24.2 7.484 24.011 7.703 23.761 7.859C23.513 8.013 23.232 8.09 22.918 8.09ZM21.679 6.503V6.134H24.154V6.503H21.679ZM26.4277 8.09C26.1117 8.09 25.8377 8.02 25.6057 7.88C25.3757 7.74 25.1967 7.543 25.0687 7.289C24.9407 7.035 24.8767 6.737 24.8767 6.395C24.8767 6.041 24.9397 5.735 25.0657 5.477C25.1917 5.219 25.3687 5.02 25.5967 4.88C25.8267 4.74 26.0977 4.67 26.4097 4.67C26.7297 4.67 27.0027 4.744 27.2287 4.892C27.4547 5.038 27.6257 5.248 27.7417 5.522C27.8577 5.796 27.9107 6.123 27.9007 6.503H27.4507V6.347C27.4427 5.927 27.3517 5.61 27.1777 5.396C27.0057 5.182 26.7537 5.075 26.4217 5.075C26.0737 5.075 25.8067 5.188 25.6207 5.414C25.4367 5.64 25.3447 5.962 25.3447 6.38C25.3447 6.788 25.4367 7.105 25.6207 7.331C25.8067 7.555 26.0697 7.667 26.4097 7.667C26.6417 7.667 26.8437 7.614 27.0157 7.508C27.1897 7.4 27.3267 7.245 27.4267 7.043L27.8377 7.202C27.7097 7.484 27.5207 7.703 27.2707 7.859C27.0227 8.013 26.7417 8.09 26.4277 8.09ZM25.1887 6.503V6.134H27.6637V6.503H25.1887ZM31.0247 8.09C30.7227 8.09 30.4647 8.015 30.2507 7.865C30.0367 7.713 29.8727 7.508 29.7587 7.25C29.6447 6.992 29.5877 6.701 29.5877 6.377C29.5877 6.055 29.6437 5.765 29.7557 5.507C29.8697 5.249 30.0327 5.045 30.2447 4.895C30.4567 4.745 30.7107 4.67 31.0067 4.67C31.3107 4.67 31.5667 4.744 31.7747 4.892C31.9827 5.04 32.1397 5.243 32.2457 5.501C32.3537 5.757 32.4077 6.049 32.4077 6.377C32.4077 6.699 32.3547 6.99 32.2487 7.25C32.1427 7.508 31.9867 7.713 31.7807 7.865C31.5747 8.015 31.3227 8.09 31.0247 8.09ZM31.0697 7.679C31.2997 7.679 31.4897 7.623 31.6397 7.511C31.7897 7.399 31.9017 7.245 31.9757 7.049C32.0497 6.851 32.0867 6.627 32.0867 6.377C32.0867 6.123 32.0497 5.899 31.9757 5.705C31.9017 5.509 31.7897 5.356 31.6397 5.246C31.4917 5.136 31.3047 5.081 31.0787 5.081C30.8467 5.081 30.6547 5.138 30.5027 5.252C30.3507 5.366 30.2377 5.521 30.1637 5.717C30.0917 5.913 30.0557 6.133 30.0557 6.377C30.0557 6.623 30.0927 6.845 30.1667 7.043C30.2427 7.239 30.3557 7.394 30.5057 7.508C30.6557 7.622 30.8437 7.679 31.0697 7.679ZM32.0867 8V5.561H32.0387V3.68H32.4827V8H32.0867ZM34.6953 8.09C34.3793 8.09 34.1053 8.02 33.8733 7.88C33.6433 7.74 33.4643 7.543 33.3363 7.289C33.2083 7.035 33.1443 6.737 33.1443 6.395C33.1443 6.041 33.2073 5.735 33.3333 5.477C33.4593 5.219 33.6363 5.02 33.8643 4.88C34.0943 4.74 34.3653 4.67 34.6773 4.67C34.9973 4.67 35.2703 4.744 35.4963 4.892C35.7223 5.038 35.8933 5.248 36.0093 5.522C36.1253 5.796 36.1783 6.123 36.1683 6.503H35.7183V6.347C35.7103 5.927 35.6193 5.61 35.4453 5.396C35.2733 5.182 35.0213 5.075 34.6893 5.075C34.3413 5.075 34.0743 5.188 33.8883 5.414C33.7043 5.64 33.6123 5.962 33.6123 6.38C33.6123 6.788 33.7043 7.105 33.8883 7.331C34.0743 7.555 34.3373 7.667 34.6773 7.667C34.9093 7.667 35.1113 7.614 35.2833 7.508C35.4573 7.4 35.5943 7.245 35.6943 7.043L36.1053 7.202C35.9773 7.484 35.7883 7.703 35.5383 7.859C35.2903 8.013 35.0093 8.09 34.6953 8.09ZM33.4563 6.503V6.134H35.9313V6.503H33.4563ZM36.8941 8V3.59H37.3351V8H36.8941ZM38.2945 4.145V3.65H38.7355V4.145H38.2945ZM38.2945 8V4.76H38.7355V8H38.2945ZM40.5108 8L39.3348 4.76H39.7818L40.7388 7.424L41.6898 4.76H42.1428L40.9668 8H40.5108ZM43.9355 8.09C43.6195 8.09 43.3455 8.02 43.1135 7.88C42.8835 7.74 42.7045 7.543 42.5765 7.289C42.4485 7.035 42.3845 6.737 42.3845 6.395C42.3845 6.041 42.4475 5.735 42.5735 5.477C42.6995 5.219 42.8765 5.02 43.1045 4.88C43.3345 4.74 43.6055 4.67 43.9175 4.67C44.2375 4.67 44.5105 4.744 44.7365 4.892C44.9625 5.038 45.1335 5.248 45.2495 5.522C45.3655 5.796 45.4185 6.123 45.4085 6.503H44.9585V6.347C44.9505 5.927 44.8595 5.61 44.6855 5.396C44.5135 5.182 44.2615 5.075 43.9295 5.075C43.5815 5.075 43.3145 5.188 43.1285 5.414C42.9445 5.64 42.8525 5.962 42.8525 6.38C42.8525 6.788 42.9445 7.105 43.1285 7.331C43.3145 7.555 43.5775 7.667 43.9175 7.667C44.1495 7.667 44.3515 7.614 44.5235 7.508C44.6975 7.4 44.8345 7.245 44.9345 7.043L45.3455 7.202C45.2175 7.484 45.0285 7.703 44.7785 7.859C44.5305 8.013 44.2495 8.09 43.9355 8.09ZM42.6965 6.503V6.134H45.1715V6.503H42.6965ZM46.0743 8V4.76H46.4703V5.54L46.3923 5.438C46.4283 5.342 46.4753 5.254 46.5333 5.174C46.5913 5.092 46.6543 5.025 46.7223 4.973C46.8063 4.899 46.9043 4.843 47.0163 4.805C47.1283 4.765 47.2413 4.742 47.3553 4.736C47.4693 4.728 47.5733 4.736 47.6673 4.76V5.174C47.5493 5.144 47.4203 5.137 47.2803 5.153C47.1403 5.169 47.0113 5.225 46.8933 5.321C46.7853 5.405 46.7043 5.506 46.6503 5.624C46.5963 5.74 46.5603 5.864 46.5423 5.996C46.5243 6.126 46.5153 6.255 46.5153 6.383V8H46.0743ZM48.6574 9.44L49.2844 7.739L49.2934 8.243L47.8744 4.76H48.3424L49.5064 7.673H49.3144L50.3884 4.76H50.8384L49.0984 9.44H48.6574Z" fill="white"/>
</g>
<defs>
<clipPath id="clip0_2_3678">
<rect width="54" height="11" rx="2" fill="white"/>
</clipPath>
</defs>
</svg>
