<svg width="10" height="10" viewBox="0 0 10 10" fill="none" xmlns="http://www.w3.org/2000/svg">
<path d="M5 2.5C4.69097 2.5 4.38887 2.59164 4.13192 2.76333C3.87497 2.93502 3.6747 3.17905 3.55644 3.46456C3.43818 3.75007 3.40723 4.06423 3.46752 4.36733C3.52781 4.67042 3.67663 4.94883 3.89515 5.16735C4.11367 5.38587 4.39208 5.53469 4.69517 5.59498C4.99827 5.65527 5.31243 5.62432 5.59794 5.50606C5.88345 5.3878 6.12748 5.18753 6.29917 4.93058C6.47086 4.67363 6.5625 4.37153 6.5625 4.0625C6.5625 3.6481 6.39788 3.25067 6.10485 2.95765C5.81183 2.66462 5.4144 2.5 5 2.5ZM5 5C4.81458 5 4.63332 4.94502 4.47915 4.842C4.32498 4.73899 4.20482 4.59257 4.13386 4.42127C4.06291 4.24996 4.04434 4.06146 4.08051 3.8796C4.11669 3.69775 4.20598 3.5307 4.33709 3.39959C4.4682 3.26848 4.63525 3.17919 4.8171 3.14301C4.99896 3.10684 5.18746 3.12541 5.35877 3.19636C5.53007 3.26732 5.67649 3.38748 5.7795 3.54165C5.88252 3.69582 5.9375 3.87708 5.9375 4.0625C5.9375 4.31114 5.83873 4.5496 5.66291 4.72541C5.4871 4.90123 5.24864 5 5 5ZM5 0.625C4.08864 0.626034 3.21489 0.98853 2.57046 1.63296C1.92603 2.27739 1.56353 3.15114 1.5625 4.0625C1.5625 5.28906 2.1293 6.58906 3.20312 7.82227C3.68563 8.37952 4.22869 8.88131 4.82227 9.31836C4.87481 9.35517 4.93741 9.37491 5.00156 9.37491C5.06572 9.37491 5.12832 9.35517 5.18086 9.31836C5.77334 8.88113 6.31534 8.37934 6.79688 7.82227C7.86914 6.58906 8.4375 5.28906 8.4375 4.0625C8.43647 3.15114 8.07397 2.27739 7.42954 1.63296C6.78511 0.98853 5.91136 0.626034 5 0.625ZM5 8.67188C4.3543 8.16406 2.1875 6.29883 2.1875 4.0625C2.1875 3.31658 2.48382 2.60121 3.01126 2.07376C3.53871 1.54632 4.25408 1.25 5 1.25C5.74592 1.25 6.46129 1.54632 6.98874 2.07376C7.51618 2.60121 7.8125 3.31658 7.8125 4.0625C7.8125 6.29805 5.6457 8.16406 5 8.67188Z" fill="black" fill-opacity="0.5"/>
</svg>
