<svg width="70" height="50" viewBox="0 0 70 50" fill="none" xmlns="http://www.w3.org/2000/svg">
<rect x="0.404297" y="0.25" width="68.7308" height="49.5" rx="14.75" stroke="#CACACA" stroke-width="0.5"/>
<path d="M35.155 12.8125C33.0509 12.812 30.9824 13.3564 29.1511 14.3925C27.3197 15.4286 25.7878 16.9212 24.7044 18.725C23.6211 20.5288 23.0231 22.5823 22.9689 24.6858C22.9146 26.7892 23.4059 28.8709 24.3948 30.7281L23.0648 34.7184C22.9546 35.0487 22.9386 35.4033 23.0186 35.7422C23.0986 36.0811 23.2714 36.3911 23.5176 36.6374C23.7639 36.8836 24.0739 37.0564 24.4128 37.1364C24.7518 37.2164 25.1063 37.2004 25.4366 37.0902L29.4269 35.7602C31.0614 36.6295 32.8724 37.1151 34.7226 37.18C36.5728 37.2449 38.4134 36.8875 40.1048 36.1348C41.7963 35.3822 43.294 34.2541 44.4843 32.8362C45.6746 31.4183 46.5263 29.7478 46.9747 27.9516C47.423 26.1554 47.4563 24.2807 47.072 22.4697C46.6876 20.6588 45.8957 18.9591 44.7564 17.4999C43.6172 16.0407 42.1604 14.8601 40.4968 14.048C38.8331 13.2358 37.0063 12.8133 35.155 12.8125ZM35.155 35.3125C33.3421 35.3137 31.561 34.8363 29.9917 33.9285C29.8768 33.8619 29.7491 33.8204 29.617 33.8069C29.4848 33.7934 29.3513 33.8081 29.2253 33.85L24.8425 35.3125L26.3038 30.9297C26.346 30.8038 26.3608 30.6703 26.3475 30.5382C26.3342 30.406 26.2929 30.2783 26.2265 30.1633C25.0897 28.1979 24.6333 25.9124 24.9281 23.6612C25.2228 21.41 26.2523 19.319 27.8567 17.7126C29.4611 16.1061 31.5508 15.0741 33.8016 14.7765C36.0524 14.4789 38.3385 14.9324 40.3053 16.0667C42.2721 17.2009 43.8096 18.9525 44.6792 21.0498C45.5489 23.147 45.7022 25.4727 45.1153 27.6659C44.5284 29.8591 43.234 31.7974 41.4331 33.1799C39.6322 34.5625 37.4254 35.3121 35.155 35.3125Z" fill="black"/>
</svg>
