<svg width="70" height="50" viewBox="0 0 70 50" fill="none" xmlns="http://www.w3.org/2000/svg">
<rect x="0.25" y="0.25" width="68.7308" height="49.5" rx="14.75" stroke="#CACACA" stroke-width="0.5"/>
<path d="M41.9827 26.9734L38.2327 25.0984C38.0851 25.0249 37.9207 24.9916 37.7561 25.0019C37.5915 25.0121 37.4325 25.0657 37.2952 25.157L35.5738 26.3055C34.7835 25.871 34.1332 25.2207 33.6988 24.4305L34.8472 22.709C34.9386 22.5717 34.9921 22.4127 35.0024 22.2481C35.0127 22.0835 34.9793 21.9191 34.9058 21.7715L33.0308 18.0215C32.9531 17.8645 32.8329 17.7325 32.684 17.6403C32.5351 17.5482 32.3633 17.4995 32.1882 17.5C30.945 17.5 29.7527 17.9939 28.8736 18.8729C27.9946 19.752 27.5007 20.9443 27.5007 22.1875C27.5038 24.9216 28.5913 27.5428 30.5246 29.4761C32.4579 31.4094 35.0791 32.4969 37.8132 32.5C38.4288 32.5 39.0383 32.3788 39.607 32.1432C40.1758 31.9076 40.6925 31.5623 41.1278 31.1271C41.563 30.6918 41.9083 30.175 42.1439 29.6063C42.3795 29.0376 42.5007 28.4281 42.5007 27.8125C42.5008 27.6383 42.4524 27.4676 42.3609 27.3194C42.2695 27.1712 42.1385 27.0514 41.9827 26.9734ZM37.8132 30.625C35.5762 30.6225 33.4315 29.7328 31.8497 28.151C30.2679 26.5692 29.3782 24.4245 29.3757 22.1875C29.3755 21.5372 29.6007 20.907 30.0128 20.4041C30.425 19.9011 30.9986 19.5565 31.6363 19.4289L32.9816 22.1242L31.8366 23.8281C31.7511 23.9565 31.6985 24.1039 31.6836 24.2574C31.6687 24.411 31.6919 24.5658 31.7511 24.7082C32.4219 26.3024 33.6901 27.5706 35.2843 28.2414C35.4271 28.3033 35.5831 28.3286 35.7382 28.3151C35.8933 28.3016 36.0426 28.2497 36.1726 28.1641L37.8847 27.0227L40.58 28.368C40.4514 29.0063 40.1053 29.5803 39.6007 29.9919C39.0961 30.4035 38.4644 30.6272 37.8132 30.625ZM35.0007 12.8125C32.8966 12.812 30.8281 13.3564 28.9968 14.3925C27.1654 15.4286 25.6335 16.9212 24.5501 18.725C23.4668 20.5288 22.8688 22.5823 22.8146 24.6858C22.7603 26.7892 23.2516 28.8709 24.2406 30.7281L22.9105 34.7184C22.8003 35.0487 22.7843 35.4033 22.8643 35.7422C22.9443 36.0811 23.1171 36.3911 23.3633 36.6374C23.6096 36.8836 23.9196 37.0564 24.2585 37.1364C24.5975 37.2164 24.952 37.2004 25.2823 37.0902L29.2726 35.7602C30.9071 36.6295 32.7181 37.1151 34.5683 37.18C36.4185 37.2449 38.2591 36.8875 39.9506 36.1348C41.642 35.3822 43.1397 34.2541 44.33 32.8362C45.5204 31.4183 46.372 29.7478 46.8204 27.9516C47.2687 26.1554 47.302 24.2807 46.9177 22.4697C46.5333 20.6588 45.7414 18.9591 44.6021 17.4999C43.4629 16.0407 42.0061 14.8601 40.3425 14.048C38.6788 13.2358 36.852 12.8133 35.0007 12.8125ZM35.0007 35.3125C33.1878 35.3137 31.4067 34.8363 29.8374 33.9285C29.7225 33.8619 29.5948 33.8204 29.4627 33.8069C29.3305 33.7934 29.197 33.8081 29.071 33.85L24.6882 35.3125L26.1495 30.9297C26.1917 30.8038 26.2065 30.6703 26.1932 30.5382C26.1799 30.406 26.1386 30.2783 26.0722 30.1633C24.9354 28.1979 24.479 25.9124 24.7738 23.6612C25.0685 21.41 26.098 19.319 27.7024 17.7126C29.3068 16.1061 31.3965 15.0741 33.6473 14.7765C35.8981 14.4789 38.1842 14.9324 40.151 16.0667C42.1178 17.2009 43.6553 18.9525 44.525 21.0498C45.3946 23.147 45.5479 25.4727 44.961 27.6659C44.3741 29.8591 43.0798 31.7974 41.2788 33.1799C39.4779 34.5625 37.2711 35.3121 35.0007 35.3125Z" fill="black"/>
</svg>
