<svg width="70" height="50" viewBox="0 0 70 50" fill="none" xmlns="http://www.w3.org/2000/svg">
<rect x="0.327148" y="0.25" width="68.7308" height="49.5" rx="14.75" stroke="#CACACA" stroke-width="0.5"/>
<path d="M36.9838 15.3822C37.0156 15.2632 37.0706 15.1517 37.1455 15.0539C37.2205 14.9562 37.3139 14.8742 37.4206 14.8126C37.5272 14.751 37.645 14.711 37.7671 14.6949C37.8892 14.6789 38.0133 14.687 38.1322 14.7189C39.8702 15.1724 41.4559 16.0809 42.7259 17.351C43.996 18.621 44.9046 20.2067 45.358 21.9447C45.3899 22.0636 45.3981 22.1877 45.382 22.3098C45.3659 22.4319 45.3259 22.5497 45.2643 22.6563C45.2027 22.763 45.1207 22.8565 45.023 22.9314C44.9253 23.0063 44.8137 23.0613 44.6947 23.0931C44.6155 23.1139 44.534 23.1246 44.4522 23.1248C44.2456 23.1248 44.0448 23.0565 43.881 22.9306C43.7171 22.8048 43.5995 22.6283 43.5463 22.4287C43.1765 21.0099 42.435 19.7154 41.3982 18.6787C40.3615 17.642 39.067 16.9005 37.6483 16.5306C37.5292 16.4989 37.4175 16.4441 37.3196 16.3692C37.2218 16.2943 37.1396 16.2008 37.0779 16.0942C37.0162 15.9875 36.9761 15.8697 36.96 15.7475C36.9438 15.6254 36.9519 15.5012 36.9838 15.3822ZM36.7108 20.2806C38.3268 20.7119 39.365 21.7502 39.7963 23.3662C39.8495 23.5658 39.9671 23.7423 40.131 23.8681C40.2948 23.994 40.4956 24.0623 40.7022 24.0623C40.784 24.0621 40.8655 24.0514 40.9447 24.0306C41.0637 23.9988 41.1753 23.9438 41.273 23.8689C41.3707 23.794 41.4527 23.7005 41.5143 23.5938C41.5759 23.4872 41.6159 23.3694 41.632 23.2473C41.6481 23.1252 41.6399 23.0011 41.608 22.8822C41.008 20.6369 39.4401 19.0689 37.1947 18.4689C36.9545 18.4047 36.6986 18.4386 36.4833 18.5631C36.2681 18.6876 36.1111 18.8925 36.0469 19.1328C35.9827 19.373 36.0166 19.6289 36.1411 19.8442C36.2656 20.0595 36.4705 20.2164 36.7108 20.2806ZM46.3131 31.4545C46.1041 33.0424 45.3243 34.4999 44.1192 35.5549C42.9142 36.6099 41.3663 37.1901 39.7647 37.1873C30.46 37.1873 22.8897 29.617 22.8897 20.3123C22.8868 18.7107 23.467 17.1628 24.522 15.9577C25.577 14.7526 27.0345 13.9728 28.6225 13.7638C29.024 13.7148 29.4307 13.7969 29.7817 13.998C30.1327 14.1991 30.4093 14.5083 30.5701 14.8795L33.0451 20.4048V20.4189C33.1683 20.703 33.2191 21.0132 33.1932 21.3218C33.1672 21.6304 33.0652 21.9277 32.8963 22.1873C32.8752 22.2189 32.8529 22.2482 32.8295 22.2775L30.3897 25.1697C31.2674 26.9533 33.133 28.8025 34.9401 29.6826L37.7924 27.2556C37.8204 27.2321 37.8497 27.2102 37.8803 27.19C38.1396 27.017 38.438 26.9115 38.7484 26.8828C39.0588 26.8542 39.3714 26.9034 39.658 27.0259L39.6733 27.033L45.194 29.5068C45.5658 29.6671 45.8757 29.9434 46.0775 30.2945C46.2792 30.6456 46.3619 31.0525 46.3131 31.4545ZM44.4522 31.2201C44.4522 31.2201 44.444 31.2201 44.4393 31.2201L38.9315 28.7533L36.0779 31.1802C36.0503 31.2037 36.0213 31.2256 35.9912 31.2459C35.7214 31.4259 35.4095 31.5328 35.086 31.5562C34.7625 31.5796 34.4384 31.5187 34.1455 31.3794C31.9506 30.3189 29.7627 28.1474 28.701 25.9759C28.5604 25.6851 28.4973 25.363 28.5178 25.0406C28.5384 24.7183 28.6418 24.4067 28.8182 24.1361C28.8381 24.1043 28.8604 24.0741 28.885 24.0459L31.3272 21.1502L28.8662 15.6423C28.8658 15.6377 28.8658 15.633 28.8662 15.6283C27.7298 15.7765 26.6864 16.3339 25.9314 17.1961C25.1764 18.0584 24.7616 19.1662 24.7647 20.3123C24.769 24.2892 26.3507 28.102 29.1629 30.9141C31.975 33.7262 35.7877 35.3079 39.7647 35.3123C40.91 35.3162 42.0176 34.9028 42.8803 34.1495C43.743 33.3961 44.3018 32.3543 44.4522 31.2189V31.2201Z" fill="black"/>
</svg>
