<svg width="50" height="50" viewBox="0 0 50 50" fill="none" xmlns="http://www.w3.org/2000/svg">
<rect x="0.25" y="0.25" width="49.5" height="49.5" rx="14.75" stroke="#CACACA" stroke-width="0.5"/>
<path d="M22.1875 35.3125C22.1875 35.6833 22.0775 36.0459 21.8715 36.3542C21.6655 36.6625 21.3726 36.9029 21.03 37.0448C20.6874 37.1867 20.3104 37.2238 19.9467 37.1515C19.583 37.0791 19.2489 36.9005 18.9867 36.6383C18.7245 36.3761 18.5459 36.042 18.4735 35.6783C18.4012 35.3146 18.4383 34.9376 18.5802 34.595C18.7221 34.2524 18.9625 33.9595 19.2708 33.7535C19.5791 33.5475 19.9417 33.4375 20.3125 33.4375C20.8098 33.4375 21.2867 33.635 21.6383 33.9867C21.99 34.3383 22.1875 34.8152 22.1875 35.3125ZM32.5 33.4375C32.1292 33.4375 31.7666 33.5475 31.4583 33.7535C31.15 33.9595 30.9096 34.2524 30.7677 34.595C30.6258 34.9376 30.5887 35.3146 30.661 35.6783C30.7334 36.042 30.912 36.3761 31.1742 36.6383C31.4364 36.9005 31.7705 37.0791 32.1342 37.1515C32.4979 37.2238 32.8749 37.1867 33.2175 37.0448C33.5601 36.9029 33.853 36.6625 34.059 36.3542C34.265 36.0459 34.375 35.6833 34.375 35.3125C34.375 34.8152 34.1775 34.3383 33.8258 33.9867C33.4742 33.635 32.9973 33.4375 32.5 33.4375ZM38.091 18.6883L35.0863 29.5023C34.9211 30.0931 34.5678 30.6138 34.0799 30.9856C33.592 31.3574 32.9962 31.5599 32.3828 31.5625H20.8C20.1848 31.5622 19.5866 31.3607 19.0966 30.9888C18.6065 30.6168 18.2516 30.0948 18.0859 29.5023L13.975 14.6875H11.875C11.6264 14.6875 11.3879 14.5887 11.2121 14.4129C11.0363 14.2371 10.9375 13.9986 10.9375 13.75C10.9375 13.5014 11.0363 13.2629 11.2121 13.0871C11.3879 12.9113 11.6264 12.8125 11.875 12.8125H14.6875C14.8925 12.8125 15.0918 12.8796 15.255 13.0036C15.4181 13.1276 15.5362 13.3017 15.591 13.4992L16.702 17.5H37.1875C37.332 17.5 37.4746 17.5334 37.6041 17.5976C37.7336 17.6618 37.8465 17.755 37.934 17.8701C38.0214 17.9851 38.0811 18.1188 38.1084 18.2608C38.1356 18.4027 38.1297 18.549 38.091 18.6883ZM35.9535 19.375H17.2234L19.8965 29.0008C19.9513 29.1983 20.0694 29.3724 20.2325 29.4964C20.3957 29.6204 20.595 29.6875 20.8 29.6875H32.3828C32.5878 29.6875 32.7871 29.6204 32.9503 29.4964C33.1135 29.3724 33.2315 29.1983 33.2863 29.0008L35.9535 19.375Z" fill="black"/>
<circle cx="38" cy="11" r="5" fill="#E53E3E"/>
<path d="M36.3 12.997L36.303 12.595L38.256 10.831C38.424 10.679 38.535 10.535 38.589 10.399C38.645 10.261 38.673 10.117 38.673 9.967C38.673 9.789 38.631 9.628 38.547 9.484C38.463 9.34 38.35 9.226 38.208 9.142C38.066 9.056 37.907 9.013 37.731 9.013C37.547 9.013 37.383 9.057 37.239 9.145C37.095 9.233 36.981 9.349 36.897 9.493C36.815 9.637 36.775 9.794 36.777 9.964H36.327C36.327 9.702 36.389 9.467 36.513 9.259C36.637 9.051 36.805 8.888 37.017 8.77C37.229 8.65 37.469 8.59 37.737 8.59C37.999 8.59 38.234 8.652 38.442 8.776C38.652 8.898 38.817 9.064 38.937 9.274C39.059 9.482 39.12 9.714 39.12 9.97C39.12 10.15 39.098 10.309 39.054 10.447C39.012 10.583 38.945 10.71 38.853 10.828C38.763 10.944 38.648 11.064 38.508 11.188L36.774 12.754L36.705 12.574H39.12V12.997H36.3Z" fill="white"/>
</svg>
