<svg width="20" height="18" viewBox="0 0 20 18" fill="none" xmlns="http://www.w3.org/2000/svg">
<path d="M19.3509 14.164L11.8357 1.11271C11.6479 0.792961 11.3798 0.527838 11.058 0.343624C10.7361 0.15941 10.3717 0.0625 10.0009 0.0625C9.6301 0.0625 9.26571 0.15941 8.94388 0.343624C8.62205 0.527838 8.35395 0.792961 8.16616 1.11271L0.650922 14.164C0.470226 14.4733 0.375 14.8251 0.375 15.1833C0.375 15.5415 0.470226 15.8932 0.650922 16.2025C0.836315 16.5242 1.10396 16.7907 1.42639 16.9748C1.74882 17.1589 2.11442 17.2539 2.48569 17.2501H17.5162C17.8871 17.2536 18.2524 17.1585 18.5745 16.9744C18.8966 16.7903 19.164 16.5239 19.3492 16.2025C19.5302 15.8934 19.6257 15.5417 19.626 15.1835C19.6263 14.8253 19.5314 14.4735 19.3509 14.164ZM18.159 15.5141C18.0935 15.6259 17.9994 15.7182 17.8864 15.7816C17.7735 15.8451 17.6457 15.8773 17.5162 15.8751H2.48569C2.35616 15.8773 2.22837 15.8451 2.11541 15.7816C2.00245 15.7182 1.90839 15.6259 1.84288 15.5141C1.78353 15.4136 1.75223 15.2991 1.75223 15.1824C1.75223 15.0657 1.78353 14.9512 1.84288 14.8507L9.35811 1.79935C9.42495 1.68813 9.51943 1.59609 9.63238 1.53219C9.74532 1.4683 9.87288 1.43472 10.0026 1.43472C10.1324 1.43472 10.26 1.4683 10.3729 1.53219C10.4858 1.59609 10.5803 1.68813 10.6472 1.79935L18.1624 14.8507C18.2212 14.9515 18.2519 15.0662 18.2513 15.1829C18.2507 15.2996 18.2188 15.414 18.159 15.5141ZM9.31342 10.3751V6.93756C9.31342 6.75522 9.38585 6.58035 9.51479 6.45142C9.64372 6.32249 9.81859 6.25006 10.0009 6.25006C10.1833 6.25006 10.3581 6.32249 10.4871 6.45142C10.616 6.58035 10.6884 6.75522 10.6884 6.93756V10.3751C10.6884 10.5574 10.616 10.7323 10.4871 10.8612C10.3581 10.9901 10.1833 11.0626 10.0009 11.0626C9.81859 11.0626 9.64372 10.9901 9.51479 10.8612C9.38585 10.7323 9.31342 10.5574 9.31342 10.3751ZM11.0322 13.4688C11.0322 13.6728 10.9717 13.8721 10.8584 14.0417C10.7451 14.2113 10.584 14.3435 10.3956 14.4216C10.2071 14.4996 9.99978 14.52 9.79974 14.4802C9.59969 14.4405 9.41594 14.3422 9.27172 14.198C9.12749 14.0538 9.02928 13.87 8.98949 13.67C8.9497 13.4699 8.97012 13.2626 9.04817 13.0742C9.12622 12.8857 9.2584 12.7247 9.42799 12.6114C9.59758 12.498 9.79696 12.4376 10.0009 12.4376C10.2744 12.4376 10.5367 12.5462 10.7301 12.7396C10.9235 12.933 11.0322 13.1953 11.0322 13.4688Z" fill="#FF0000"/>
</svg>
